<?xml version="1.0" encoding="utf-8"?>
<!-- Generator: Adobe Illustrator 22.0.1, SVG Export Plug-In . SVG Version: 6.00 Build 0)  -->
<svg version="1.1" xmlns="http://www.w3.org/2000/svg" xmlns:xlink="http://www.w3.org/1999/xlink" x="0px" y="0px"
	 viewBox="0 0 2272 1872" style="enable-background:new 0 0 2272 1872;" xml:space="preserve">
<style type="text/css">
	.st0{fill:#33767F;}
	.st1{fill:#255C60;}
	.st2{fill:#555170;}
	.st3{fill:#5E5C7C;}
	.st4{fill:#FFEB73;}
	.st5{fill:#646284;}
	.st6{fill:#363649;}
	.st7{fill:#413F56;}
	.st8{fill:#4DA8BB;}
	.st9{fill:#3A8993;}
	.st10{fill:#312F44;}
	.st11{fill:#4C2424;}
	.st12{fill:#5E2E2E;}
	.st13{fill:#A04E4E;}
	.st14{fill:#2D7277;}
	.st15{fill:none;}
	.st16{fill:#22323F;}
	.st17{fill:#2C3E50;}
	.st18{fill:#3C5366;}
	.st19{fill:#567991;}
	.st20{fill:#344B5B;}
	.st21{fill:#512649;}
	.st22{fill:#FFD6CA;}
	.st23{fill:#FFE7E1;}
	.st24{fill:#52425B;}
	.st25{fill:#FFFFFF;}
	.st26{fill:#F48E69;}
	.st27{fill:#CC6A4C;}
	.st28{fill:#3C3044;}
	.st29{fill:#6D3A66;}
	.st30{fill:#5B3257;}
	.st31{fill:#7A2A26;}
	.st32{fill:#C2E4E8;}
	.st33{fill:#EEFEFF;}
	.st34{fill:#E74C3C;}
	.st35{fill:#B5342D;}
	.st36{fill:#F0FEFF;}
	.st37{fill:#492222;}
	.st38{fill:#842323;}
	.st39{fill:#91B4B5;}
	.st40{fill:#A53232;}
	.st41{opacity:0.1;fill:#69FBFF;}
	.st42{fill:#A59967;}
	.st43{opacity:0.24;fill:#69FBFF;}
	.st44{fill:#D3C58C;}
	.st45{fill:#B2A570;}
</style>
<g id="Background">
	<g id="Layer_1_1_">
	</g>
	<g id="Layer_2">
	</g>
	<g id="Layer_1_2_">
	</g>
	<g>
		<g>
			<g>
				<rect class="st0" width="2272" height="1872"/>
			</g>
			<path class="st1" d="M2272,970.3V0h-285.8v842.7C2055.5,896.2,2149.4,946.6,2272,970.3z"/>
			<g>
				<rect x="539.9" class="st2" width="1446.3" height="1872"/>
			</g>
			<path class="st3" d="M1948.8,511.9c-113.3,54.1-244.2,84-364.9,49.6c-45.4-12.9-88.9-34.8-136-38.3
				c-60.1-4.5-118.3,21.5-170.6,51.5c-99,56.8-187.9,129.9-287.1,186.6C866.5,832,729.5,875.6,593.6,918.6
				c-17.9,5.7-35.8,11.3-53.8,16.9v593.3c205.8-102.4,411.7-204.7,617.5-307.1c45.6-22.7,92.6-46.5,124.8-85.9
				c36.4-44.6,49.1-103.4,71.5-156.4c53.3-126.2,163.7-221.4,285.9-283.3c114.1-57.9,227.4-76.7,346.6-117.6V493
				C1973.8,499.6,1961.4,505.9,1948.8,511.9z"/>
			<circle class="st4" cx="1535.6" cy="380.6" r="130.9"/>
			<path class="st5" d="M1012.2,481.3c24,2.9,48.5,1.5,72-3.9c13.7-3.2,29.3-10.2,31.5-24.1c1.7-10.8-5.1-23.7,2.3-31.7
				c3.2-3.5,8.3-4.7,12.9-5.7c7.7-1.6,15.4-3.2,23.1-4.8c2-0.4,4-0.9,5.6-2.1c2.6-2.1,3.2-5.6,4.1-8.8c5.6-19.2,31-29.5,48.3-19.5
				c9.5-9.4,26.2-13.5,39.1-16.7c3.7-0.9,7.7-1.6,11.3-0.5c7.3,2.1,11.1,10.2,12.5,17.7c1.4,7.5,1.4,15.4,5.1,22.1
				c-1.1-6.8,18,3.4,23.1,8c5.1,4.6,8.3,12.1,15,13.9c4.8-10.5,16.5-17.3,28-16.2s21.7,10,24.5,21.2c-3.3-4.6,13.4-12.5,18.3-9.8
				c4.9,2.7,6.3,9.1,7.1,14.7c0.8,5.6,1.9,11.9,6.6,15c2.9,1.9,6.7,2.1,10.2,2.2c61.3,2.3,122.6,4.6,183.9,6.9
				c-99.8,31.6-225,10.3-329.6,13.3C1173.1,475.1,1105.8,491.5,1012.2,481.3z"/>
			<path class="st5" d="M1493.4,901.8c24,2.9,48.5,1.5,72-3.9c13.7-3.2,29.3-10.2,31.5-24.1c1.7-10.8-5.1-23.7,2.3-31.7
				c3.2-3.5,8.3-4.7,12.9-5.7c7.7-1.6,15.4-3.2,23.1-4.8c2-0.4,4-0.9,5.6-2.1c2.6-2.1,3.2-5.6,4.1-8.8c5.6-19.2,31-29.5,48.3-19.5
				c9.5-9.4,26.2-13.5,39.1-16.7c3.7-0.9,7.7-1.6,11.3-0.5c7.3,2.1,11.1,10.2,12.5,17.7c1.4,7.5,1.4,15.4,5.1,22.1
				c-1.1-6.8,18,3.4,23.1,8s8.3,12.1,15,13.9c4.8-10.5,16.5-17.3,28-16.2s21.7,10,24.5,21.2c-3.3-4.6,13.4-12.5,18.3-9.8
				c4.9,2.7,6.3,9.1,7.1,14.7s1.9,11.9,6.6,15c2.9,1.9,6.7,2.1,10.2,2.2c61.3,2.3,122.6,4.6,183.9,6.9
				c-99.8,31.6-225,10.3-329.6,13.3C1654.3,895.5,1587,912,1493.4,901.8z"/>
			<polygon class="st6" points="1267.8,941.2 793.9,630.4 539.9,849.6 539.9,954.2 539.8,954.2 539.8,1665.9 1090.5,1665.9 
				1090.5,1025.2 1267.8,1025.2 			"/>
			<path class="st7" d="M642.2,791.8c11.7-2.6,23.9-2.9,35.2-6.9c16.4-5.9,29.1-18.9,44.1-27.9c25.2-15.1,55.7-17.8,84.5-23.7
				c38.8-8,100.5-18.7,134.6-38.9c32.8,13.7,69.8,27.6,102.7,14c18.7-7.7,32.9-23.2,49.1-35.3c16.2-12.1,41.9-18.4,60.6-10.6
				c15.8-10.6,40.3-3.9,57.6-12c22.8-10.6,45.7-21.3,68.5-31.9c19.9-9.3,40.2-18.8,55.7-34.3c12-11.9,20.5-26.8,31.3-39.8
				c9.6-11.5,20.9-21.3,32.4-30.8c33.8-28,69.8-53.3,107.6-75.8c9.9-5.9,14.7-21.6,23.2-29.4c-17.9,17.4-41.7,28.6-66.5,31.1
				c-4.6,0.5-9.3,0.7-13.3,3c-4.2,2.4-7,6.7-9.9,10.6c-8.5,11.1-37.7,31.2-50.9,35.6c-14.4,24.9-47.1,31.8-69.1,50.3
				c-9.8,8.2-17.4,18.8-26.9,27.4c-10,9-26.9,32.9-40.3,34c-26.3,2.2-52.6,4.3-78.9,6.5c-22.3,1.8-45.2,3.8-65.4,13.5
				c-32.8,15.7-59.5,61.6-95.2,54.9c-16.6-3.1-32.6-9.3-46.9-18.1c-2.3-1.4-4.6-2.9-6-5.2c-1.6-2.5-1.9-5.7-1.8-8.7
				c1-26,53-47.9,73.5-63.9c17.3-13.6,44.2,1,64-8.5c13.5-6.5,19.8-22.3,31.5-31.7c5-4,10.9-6.8,15.4-11.2c9.2-9,10.9-23,16.1-34.8
				c6.2-14.2,18.1-25.8,32.4-31.7c3-1.2,6.2-2.4,8.2-4.9c2-2.5-13.2-2.6-16.2-3.7c-16.4,8.6-33.8,14-50.2,22.6
				c-11.1,18.3-22.3,36.8-37.2,52.2s-39,34.6-60.4,34.9c-55.8,1-110.9,24.2-150.5,63.5c-15.1,15-28.3,32.4-46.4,43.5
				c-18.8,11.5-41.2,15.3-63,18.8c-41,6.6-81.9,13.3-122.9,19.9c-33,5.3-66.2,10.7-99.5,9.9c-5,4.8-9.1,8.6-12.6,11.9v119.5
				c15-11,30.7-21,46.2-30.8C603.7,807.6,621.8,796.3,642.2,791.8z"/>
			<path class="st7" d="M703.5,627.7c29.9,4.2,60.3,5.1,90.4,2.7c-8.3-8.7-15.1-18.7-20.1-29.6c7.5,3.4,17.5-2.1,25-5.6
				c7.5-3.5,8.2-17.5-0.1-18.4c19.9,0.8,39.8,1.4,59.6,1.9c21.3,0.6,42.7-7.3,56.9-23.2c-14.1,1.4-28.5-1-41.3-7
				c9.4-9.4,26-13.2,39.1-11.2c5.6,0.9,14.7-1.4,11.8-6.3c-7.2-3.4-15.2-13.5-8.8-18.3c1.3-1,3-1.4,4.6-1.7
				c10.7-2.4,21.5-4.7,32.2-7.1c11.7,7.4,26.7-1.5,38.4,6c8.8-13.1-2.1-34.1-17.9-34.5c16.3-0.2,35-22.4,39.9-38
				c-9.3,2.3-25-0.7-34.3,1.5c14.2-10.7,28.5-21.5,42.7-32.2c13.3-0.7,22.5,7.3,35.7,9.6c16.9,2.9,35.2-5.1,44.6-19.5
				c-14.9,0-28-5.2-37.7-16.5c16.4,7.5,38.2-6.9,37.9-24.9c13.1,0,33.7,0,46.8,0c-15.7-4.1-46-30.7-44.3-46.9
				c11.1,3.1,22.7,6.1,34,3.7s21.8-12.1,21-23.6c4.5,14,26.1,27.8,40.2,31.9c14.1,4.1,30.1,0.9,41.4-8.4
				c-15.7-3.5-28.6-17.1-31.3-33c10.1,6.4,25.4-6.5,20.7-17.5c-16.1-2.9-31.8-9.6-47.9-12.5c6.9-21.4,28.6-37,51.1-36.9
				c2.9-2.7-6.4-14.5-10.3-14c-15.5,1.8-30.9,4.9-45.9,9.1c15-12.4,28-27.1,38.4-43.5c-7.7,10.6-27.4-0.5-40.2-3.2
				c2.4-7.5,9.1-12.7,14.7-18.3c8-8,14.4-17.6,23.1-24.9c5.6-4.8,12.8-8.5,20-9.4c-8.7-2.7-17.1-8.7-25.3-12.3
				c-2.3-1-4.8-2.6-4.8-5.1c0.1-3.3,4.4-4.3,7.7-4.5c22-1.3,43.7-7.4,63.2-17.6c-2.9-3.6-4.4-8.4-4-13.1
				c20.4,2.2,41.5-1.4,60.1-10.2c-10-4.9-19.5-10.8-28.5-17.5c24.6,4.7,50,5,74.6,0.8c-3.3,10.5,3,5.1-6,11.5
				c30.2,4.4,61,5.1,91.4,2.1c4.5-0.4,9.5-1.2,12.3-4.7c2.4-2.9,2.7-6.9,2.8-10.6c0.2-9.1-0.5-18.1-2.1-27h-848
				c-6.6,4.1-13.1,8.5-19.3,13.3c-28.3,21.9-49.8,50.3-68.1,81.1v531.4C593.7,620.1,638.9,618.6,703.5,627.7z"/>
			<g>
				<rect y="1529.8" class="st8" width="2272" height="342.2"/>
			</g>
			<g>
				<rect y="1529.8" class="st9" width="2272" height="29.2"/>
			</g>
			<g>
				<rect y="1586.6" class="st9" width="2272" height="29.2"/>
			</g>
			<g>
				<rect y="1643.4" class="st9" width="2272" height="29.2"/>
			</g>
			<g>
				<rect y="1700.2" class="st9" width="2272" height="29.2"/>
			</g>
			<g>
				<rect y="1757" class="st9" width="2272" height="29.2"/>
			</g>
			<g>
				<rect y="1813.9" class="st9" width="2272" height="29.2"/>
			</g>
		</g>
		<g>
			<rect x="1267.8" class="st10" width="30.7" height="1525.8"/>
			
				<rect x="1267.8" y="0" transform="matrix(-1.836970e-16 1 -1 -1.836970e-16 2046.0535 -520.2313)" class="st10" width="30.7" height="1525.8"/>
			<rect x="1742.7" class="st10" width="30.7" height="1525.8"/>
			<rect x="815.2" class="st10" width="30.7" height="1525.8"/>
		</g>
		<path class="st11" d="M2272,873.3V0h-840.4C1456.6,125.6,1609.1,719.4,2272,873.3z"/>
		<path class="st11" d="M1170.7,0H0v908.7C899.9,876.3,1142.5,141.4,1170.7,0z"/>
		<g>
			<path class="st12" d="M2272,515.1v-84.4c-278-35-467.1-253.8-576.6-430.7h-131C1670.8,198.7,1900.5,519.6,2272,515.1z"/>
			<path class="st11" d="M1564.4,0H1460c60.6,143.8,318,672.7,812,630.3V515.1C1900.5,519.6,1670.8,198.7,1564.4,0z"/>
			<path class="st12" d="M1460,0h-28.5c-44.2,16.5,104.9,605.1,840.4,873.3v-243C1778,672.7,1520.6,143.8,1460,0z"/>
			<path class="st13" d="M1436.4,0h-4.9c-44.2,16.5,104.9,605.1,840.4,873.3V844C1630.6,656,1469.2,141.6,1436.4,0z"/>
			<path class="st12" d="M1100.9,0H982.1C809,209.1,494.5,471.9,0,486.9v124.5C617.1,604,960.1,212.3,1100.9,0z"/>
			<path class="st12" d="M0,780.1v128.6C899.9,876.3,1142.5,141.4,1170.7,0h-8C1063.6,181.3,684.5,780.6,0,780.1z"/>
			<path class="st13" d="M0,899.4v9.3c731.7-26.3,1028.8-517.1,1129.5-775.6C806.8,791.7,191.9,886.1,0,899.4z"/>
			<path class="st11" d="M0,611.4v168.6C684.5,780.6,1063.6,181.3,1162.7,0h-61.8C960.1,212.3,617.1,604,0,611.4z"/>
		</g>
		<polygon class="st9" points="888.1,1686.6 888.1,1643.1 736.4,1643.1 517.2,1643.1 499.9,1643.1 429.2,1643.1 365.5,1643.1 
			129,1643.1 58.2,1643.1 58.2,1658.3 58.2,1674.7 58.2,1683.6 40.1,1683.6 40.1,1698.8 40.1,1715.2 40.1,1727 45.4,1727 
			45.4,1742.3 45.4,1758.6 45.4,1766.3 34.5,1766.3 34.5,1781.5 34.5,1797.9 34.5,1809.7 40.1,1809.7 40.1,1818.3 40.1,1834.7 
			40.1,1846.6 45.4,1846.6 45.4,1861.8 875.3,1846.6 869.9,1846.6 869.9,1803.1 864.3,1803.1 864.3,1770.5 875.3,1770.5 875.3,1727 
			869.9,1727 869.9,1686.6 		"/>
		<g>
			<polygon class="st14" points="539.9,1729.4 45.4,1729.4 45.4,1742.3 45.4,1757 539.9,1757 			"/>
			<polygon class="st14" points="539.9,1672.6 58.2,1672.6 58.2,1674.7 58.2,1683.6 40.1,1683.6 40.1,1698.8 40.1,1700.2 
				539.9,1700.2 			"/>
			<polygon class="st14" points="539.9,1700.2 869.9,1700.2 869.9,1686.6 888.1,1686.6 888.1,1672.6 539.9,1672.6 			"/>
			<rect x="539.9" y="1729.4" class="st14" width="335.4" height="27.7"/>
			<polygon class="st14" points="539.9,1757 45.4,1757 45.4,1758.6 45.4,1766.3 34.5,1766.3 34.5,1781.5 34.5,1786.2 539.9,1786.2 
							"/>
			<polygon class="st14" points="539.9,1786.2 864.3,1786.2 864.3,1770.5 875.3,1770.5 875.3,1757 539.9,1757 			"/>
			<polygon class="st14" points="40.1,1813.9 40.1,1818.3 40.1,1834.7 40.1,1843 539.9,1843 539.9,1813.9 			"/>
			<rect x="539.9" y="1813.9" class="st14" width="330.1" height="29.2"/>
		</g>
		<g>
			<polygon class="st14" points="1818.7,1729.4 1324.3,1729.4 1324.3,1742.3 1324.3,1757 1818.7,1757 			"/>
			<polygon class="st14" points="1818.7,1672.6 1337.1,1672.6 1337.1,1674.7 1337.1,1683.6 1318.9,1683.6 1318.9,1698.8 
				1318.9,1700.2 1818.7,1700.2 			"/>
			<polygon class="st14" points="1818.7,1700.2 2148.8,1700.2 2148.8,1686.6 2167,1686.6 2167,1672.6 1818.7,1672.6 			"/>
			<rect x="1818.7" y="1729.4" class="st14" width="335.4" height="27.7"/>
			<polygon class="st14" points="1818.7,1757 1324.3,1757 1324.3,1758.6 1324.3,1766.3 1313.3,1766.3 1313.3,1781.5 1313.3,1786.2 
				1818.7,1786.2 			"/>
			<polygon class="st14" points="1818.7,1786.2 2143.2,1786.2 2143.2,1770.5 2154.2,1770.5 2154.2,1757 1818.7,1757 			"/>
			<polygon class="st14" points="1318.9,1813.9 1318.9,1818.3 1318.9,1834.7 1318.9,1843 1818.7,1843 1818.7,1813.9 			"/>
			<rect x="1818.7" y="1813.9" class="st14" width="330.1" height="29.2"/>
		</g>
		<path class="st15" d="M703.5,627.7c29.9,4.2,60.3,5.1,90.4,2.7c-8.3-8.7-15.1-18.7-20.1-29.6c7.5,3.4,17.5-2.1,25-5.6
			c7.5-3.5,8.2-17.5-0.1-18.4c19.9,0.8,39.8,1.4,59.6,1.9c21.3,0.6,42.7-7.3,56.9-23.2c-14.1,1.4-28.5-1-41.3-7
			c9.4-9.4,26-13.2,39.1-11.2c5.6,0.9,14.7-1.4,11.8-6.3c-7.2-3.4-15.2-13.5-8.8-18.3c1.3-1,3-1.4,4.6-1.7
			c10.7-2.4,21.5-4.7,32.2-7.1c11.7,7.4,26.7-1.5,38.4,6c8.8-13.1-2.1-34.1-17.9-34.5c16.3-0.2,35-22.4,39.9-38
			c-9.3,2.3-25-0.7-34.3,1.5c14.2-10.7,28.5-21.5,42.7-32.2c13.3-0.7,22.5,7.3,35.7,9.6c16.9,2.9,35.2-5.1,44.6-19.5
			c-14.9,0-28-5.2-37.7-16.5c16.4,7.5,38.2-6.9,37.9-24.9c13.1,0,33.7,0,46.8,0c-15.7-4.1-46-30.7-44.3-46.9
			c11.1,3.1,22.7,6.1,34,3.7c11.3-2.4,21.8-12.1,21-23.6c4.5,14,26.1,27.8,40.2,31.9s30.1,0.9,41.4-8.4c-15.7-3.5-28.6-17.1-31.3-33
			c10.1,6.4,25.4-6.5,20.7-17.5c-16.1-2.9-31.8-9.6-47.9-12.5c6.9-21.4,28.6-37,51.1-36.9c2.9-2.7-6.4-14.5-10.3-14
			c-15.5,1.8-30.9,4.9-45.9,9.1c15-12.4,28-27.1,38.4-43.5c-7.7,10.6-27.4-0.5-40.2-3.2c2.4-7.5,9.1-12.7,14.7-18.3
			c8-8,14.4-17.6,23.1-24.9c8.7-7.3,20.8-12.1,31.4-8.2c-12.7,1.8-25-8.4-36.7-13.5c-2.3-1-4.8-2.6-4.8-5.1c0.1-3.3,4.4-4.3,7.7-4.5
			c22-1.3,43.7-7.4,63.2-17.6c-2.9-3.6-4.4-8.4-4-13.1c20.4,2.2,41.5-1.4,60.1-10.2c-10-4.9-19.5-10.8-28.5-17.5
			c24.6,4.7,50,5,74.6,0.8c-3.3,10.5,3,5.1-6,11.5c30.2,4.4,61,5.1,91.4,2.1c4.5-0.4,9.5-1.2,12.3-4.7c2.4-2.9,2.7-6.9,2.8-10.6
			c0.9-41.5-17.3-82.9-48.5-110.3s-74.7-40-115.7-33.6c-179.2-5.2-369,26.7-543.6,67.3C712.8-36.4,654.1-22.4,608,13.3
			c-49.4,38.2-78.3,96.6-105.5,152.8c-33.9,70.2-67.9,140.3-101.8,210.5c-12.5,25.9-25.4,54.3-19.1,82.3
			c6.8,30.3,34.3,51.6,62.4,64.8c28.1,13.3,58.9,21.4,84.3,39.2c-18.7,23.7-37.3,47.3-56,71C561.9,622.8,614.1,615.2,703.5,627.7z"
			/>
	</g>
</g>
<g id="object">
	<g>
		<path class="st16" d="M469.9,1082.9c0,0-96.3,3-125.3-98.8c0,0-28.1,68.5,54.8,125.9l0,24.5l17.1,6.2c0,0,16.2-33,44.8-35.5
			L469.9,1082.9z"/>
		<path class="st17" d="M1381.6,1274.2l-538-383.8l-400.8,190.4l11.2,32.3l350.7-106.2c0,0,431.1,625.6,695.9,544.8
			S1381.6,1274.2,1381.6,1274.2z"/>
		<path class="st16" d="M941.1,960l-2.7-0.8l-101,93.1c6.5,8.8,14,18.7,22.2,29.5c30.9-28.4,87.5-79.8,110.8-100.9L941.1,960z"/>
		<path class="st16" d="M715.6,1152.1c0,0-58.8,76.4-155.9,34.3c0,0,35.1,65.2,132.1,37.5l19,15.5l15.7-9.2c0,0-8.9-28.5,7.3-52.1
			L715.6,1152.1z"/>
		<polygon class="st18" points="1397,1260.9 937.4,862.5 703.4,1153.6 733.8,1178.1 946.5,982.5 1381.6,1289.2 		"/>
		<polygon class="st19" points="937.4,862.5 703.4,1153.6 715.5,1163.4 943.5,867.8 		"/>
		<polygon class="st20" points="946.5,982.5 1254.8,1199.8 960.4,955.6 		"/>
		<g>
			<path class="st21" d="M1900.5,1094.1c0,0-197.8,60.4-221.9,44.4c-24.1-16.1-87-236.4-87-236.4l-30.3,12.7
				c0,0-50.4,320.3,132.3,319.1s219.1-59.7,219.1-59.7L1900.5,1094.1z"/>
			<g>
				<path class="st22" d="M1860.1,996.8c20.9,4,43.2,2.2,62.2-7.3s34.2-27.4,38.2-48.3c-0.2,1.3-29.8,4.9-32.8,5.5
					c-11.3,2.2-22.5,4.8-33.6,7.7c-8.6,2.2-20.9,2.7-25.1,11.2C1864.2,975.2,1861.3,986.2,1860.1,996.8z"/>
				<path class="st23" d="M1927.7,946.7c-11.3,2.2-22.5,4.8-33.6,7.7c-8.6,2.2-20.9,2.7-25.1,11.2c-1.6,3.3-3,6.7-4.2,10.2
					c18.9,0.7,38-1.4,56.1-7.1c13.1-4.1,25.6-10.1,36.9-17.9c1.2-3.1,2.1-6.3,2.7-9.6C1960.2,942.5,1930.7,946.1,1927.7,946.7z"/>
				<g>
					
						<ellipse transform="matrix(0.1601 -0.9871 0.9871 0.1601 715.0865 2644.6748)" class="st24" cx="1911.7" cy="902.1" rx="20.7" ry="18.8"/>
					
						<ellipse transform="matrix(0.1601 -0.9871 0.9871 0.1601 712.1122 2641.179)" class="st25" cx="1908.1" cy="902.1" rx="20.7" ry="18.8"/>
				</g>
				<path class="st26" d="M1932.1,878.8c0,0-55.3,21.2-69.1,55.1l20.6,2.4l-21,29.6c0,0,59,9.3,93.2-16.7c0,0-28.3,55.9-97.9,36.5
					c0,0-23.6,59.6-21.9,69.9s81.7-15.1,81.7-15.1l-36.8,37.2l22.8,5.8l113.4-105c0,0,11.5,8.4,25.4-7.7s39.5-52.4,17.7-51.5
					c-21.8,0.9-17.7,0.6-17.7,0.6s22.1-44.8-21.6-64.7C1977,835.5,1932.1,878.8,1932.1,878.8z"/>
				<path class="st27" d="M1999.2,877.7c14.6-2.8,29.6-3.4,44.4-1.9c-3.9-7.7-10.9-15-22.8-20.4c-43.7-19.9-88.6,23.4-88.6,23.4
					s-4,1.5-10.1,4.4c3.2,2.2,7.4,3.6,11.2,4.2C1955.4,891,1977.2,881.9,1999.2,877.7z"/>
				<path class="st27" d="M1863.9,931.9c-0.3,0.7-0.6,1.3-0.9,2l18.5,2.2c7.7-3.4,15.7-6.3,23.8-8.7
					C1891.3,926.7,1877.3,928.3,1863.9,931.9z"/>
				<path class="st27" d="M1835.9,1055.6c1.7,10.3,81.7-15.1,81.7-15.1l-36.8,37.2l22.8,5.8l82.6-76.5
					c-48.2,21.6-97.8,41.5-150.1,44.8C1835.8,1053.4,1835.8,1054.7,1835.9,1055.6z"/>
				<path class="st24" d="M1948,873.8c-14.5,4.2-28.9-8.1-34-22.3c-6-16.9,1.6-30.3,10.2-42.7c-1,5,4.3,12.5,7.3,13.4
					c28.9,8.6,59.9-9,89.6-4.1c20.3,3.3,38.5,17.8,46.2,37c8.1,20,2.9,48.1-3.6,68.6l-6.2-1.1c-9.5-1.6-19.2,1.7-25.6,8.9
					l-20.5,22.7l-13.4-22l35.5-25.1c0,0,9.4-31.1-1.9-36.3C2020.4,865.6,1948,873.8,1948,873.8z"/>
				<path class="st28" d="M2044,903.3c2.5-4.9,3.5-10.4,3.8-15.9c0.2-4.6-0.1-9.2-1.9-13.4c-3.9-9.3-14-14.7-24-16.2
					s-20.1,0.2-30.2,1.1c-15.4,1.2-31,0.4-46.2-2.6c-4-0.8-8-1.7-11.5-3.8c-3.5-2.1-6.3-5.2-8.6-8.7c-4.6-7-7.1-15.6-6.5-24
					c0.1-1.2,0.3-2.4,0.5-3.5c-6.2,10.3-10.2,21.6-5.3,35.2c5.1,14.2,19.5,26.4,34,22.3c0,0,72.4-8.1,83.7-2.9
					c11.3,5.2,1.9,36.3,1.9,36.3l-35.5,25.1l1.9,3.1C2014.6,924.5,2035.7,919.6,2044,903.3z"/>
				<polygon class="st28" points="1950,898.1 2064.9,920 2064.9,917.2 1946.7,894.3 				"/>
				<g>
					
						<ellipse transform="matrix(0.1601 -0.9871 0.9871 0.1601 734.6902 2667.7146)" class="st24" cx="1935" cy="902.1" rx="20.7" ry="18.8"/>
					
						<ellipse transform="matrix(0.1601 -0.9871 0.9871 0.1601 731.7158 2664.2188)" class="st25" cx="1931.5" cy="902.1" rx="20.7" ry="18.8"/>
				</g>
				<path class="st27" d="M1961.1,939.4c6.6,2.3,11.8,9.2,10.9,16.1c2.4-8.8-1.1-18.9-8.3-24.4c-1.8-1.4-3.8-2.5-6-3.1
					c-4.4-1.2-9.3-0.2-12.8,2.7c-2.7,2.2-7.8,9.6-2.2,10c2.4,0.2,6.3-2.1,9-2.4C1954.8,938.1,1958,938.4,1961.1,939.4z"/>
			</g>
			<path class="st29" d="M1880.8,1074.7c0,0-69.9,9.6-114.7,52.8c-44.8,43.3-128.4,131.7-220.3,118.5s-151.8-46.8-179,11.9
				c-27.2,58.7-71.1,256.8,116.7,301.9c187.8,45.1,391.1-105.7,453.9-271.8c62.8-166-6.4-223.3-6.4-223.3L1880.8,1074.7z"/>
			<path class="st30" d="M1426.2,1335.3c3.2,16.1,8.2,32.2,17.9,45.4c11.5,15.7,28.7,26.2,46.6,34.1c35.3,15.5,74.5,21.8,112.9,18.2
				c17.6-1.7,34.9-5.3,51.9-10.1c57.2-16,111.1-44.5,154.8-84.8s76.7-92.4,91.9-149.9c-48,32.7-97.2,64.8-151.8,84.4
				s-115.9,26.1-170.6,6.8c-9.4-3.3-19-7.7-25.3-15.4c-4.2-5.2-6.6-11.4-8.3-17.9c0,0-0.1,0-0.1,0c-47.9-6.8-87.1-19.3-117.5-21.3
				C1419.7,1260.9,1418.9,1298.9,1426.2,1335.3z"/>
			<path class="st21" d="M1921.8,1062.6c2.1-0.7,4.2-1.5,6.4-1.2c2.2,0.3,4.3,2.2,4,4.3c-0.1,0.8-0.6,1.6-1.1,2.3
				c-2,3.1-4,6.2-6,9.3c-1.8,2.7-3.6,5.5-5.8,7.9c-4.8,5.2-11.6,8.4-18.7,9c-7.1,0.5-14.3-1.7-19.8-6.2c-3-2.4-5.7-5.9-5.6-9.8
				c0.2-9.1,6.7-18.2,15.9-16C1901.8,1064.7,1910.9,1066.1,1921.8,1062.6z"/>
			<polygon class="st31" points="1461.7,737.9 1583.5,700.5 1661.6,1073.9 1617.7,1088 			"/>
			<path class="st32" d="M1469.8,744.8c0,0,101.5-25.2,119.3-35.1l77.7,351.6l-49,16.4L1469.8,744.8z"/>
			<path class="st33" d="M1478.5,741.8c0,0,98-4.7,145,40.3l31.7,279.3c0,0-28.7-23.5-73.9-29.3L1478.5,741.8z"/>
			<polygon class="st34" points="1461.7,737.9 1548.2,1071.3 1641.5,1117.4 1578.8,764.6 			"/>
			<path class="st35" d="M1548.4,1033.1c2-4.4,2-9.3,2.2-14.1c0.3-9.2,1.3-18.5,3-27.5c1.5-8.6,3.7-17.2,8.5-24.5
				c10.4-15.9,30-21.7,47.3-30.2l-5.9-33.5c-7.2,0.6-14.3,1.7-21.2,3.5c-7,1.8-14.1,4.3-21.3,4.4c-8.8,0.1-17.2-3.2-24.9-7.4
				c-5.8-3.1-11.4-6.8-16.1-11.6c-11.9-12.1-16.1-29.6-18.5-46.4c-1.1-7.4-2.1-15.3-7-21c-3-3.4-7.2-5.4-11.7-6l58.1,224
				c0.3-0.3,0.6-0.6,0.9-0.9C1544.2,1039.3,1546.8,1036.5,1548.4,1033.1z"/>
			<path class="st26" d="M1505.6,945.5c0,0-46.7-26.5-43.8-48.7s12.3-21.6,12.3-21.6l1.3-19.9c0,0,9.4-25.6,15.5-30.8
				c6.1-5.2,0.1,23.1,6.9,30.8s47.1,57,74.5,51.9c27.4-5.1,33.7-15.5,32.2,0c-1.6,15.5-37.5,24.5-43.3,33.2s-40.3,8.8-40.3,8.8
				L1505.6,945.5z"/>
			<path class="st27" d="M1478.1,878.3c0.8-2.2,0.9-4.6,1.8-6.8c2.2-5.8,9.3-9.4,9.6-15.6c0.1-2-0.5-3.9-1.1-5.8
				c-1.9-6.8-2.2-14-1.1-20.9c-5.6,9.1-11.9,26.2-11.9,26.2l-1.3,19.9c0,0-7.6-0.5-11.2,15.6c1.3-0.9,2.6-1.7,4-2.6
				C1471.3,885.7,1476.3,883.1,1478.1,878.3z"/>
			<path class="st21" d="M1913.2,1105.8c-19.9-8.4-57.4-20.1-82.4-2.9c-35.5,24.4-198.3,165.8-247.1,143
				c-41.2-19.3-46.7-231.3-47.4-296.4c-0.1-9.8-9.1-17.1-18.7-15.1c-5.8,1.2-10.4,5.4-12,11.1c-17,60.7-107.4,401.9-4.8,451.9
				c112.7,55,426-116.6,448.9-233.4c0,0,0.1-1.2,0.1-3.2C1949.9,1136.8,1935.3,1115.2,1913.2,1105.8z"/>
			<path class="st30" d="M1542.1,1204.8c2.9,10.9,6.1,22.1,13.2,30.8c13.4,16.6,37.7,20.8,58.4,15.8c9.1-2.2,19.3-9.2,29.4-17.3
				c-24.9,12.2-46.3,17.9-59.4,11.8c-41.2-19.3-46.7-231.3-47.4-296.4c-0.1-8-6-14.2-13.4-15.3
				C1512.4,1024.6,1519,1116.9,1542.1,1204.8z"/>
		</g>
	</g>
	<g>
		<g>
			<g>
				<g>
					<rect x="1983.1" y="1364" class="st12" width="225.6" height="38.3"/>
					<rect x="1942" y="1364" class="st32" width="178.6" height="38.3"/>
					<rect x="1942" y="1374.5" class="st36" width="175.6" height="14.4"/>
				</g>
				<rect x="2127.6" y="1372.2" class="st37" width="78.1" height="20"/>
			</g>
			<g>
				<g>
					<g>
						<rect x="1969.3" y="1150.5" class="st12" width="225.6" height="38.3"/>
						<rect x="1928.2" y="1150.5" class="st32" width="178.6" height="38.3"/>
						<rect x="1928.2" y="1160.9" class="st36" width="175.6" height="14.4"/>
					</g>
					<rect x="2113.7" y="1158.6" class="st37" width="78.1" height="20"/>
				</g>
				<g>
					<g>
						<rect x="1972.6" y="1223.3" class="st12" width="225.6" height="38.3"/>
						<rect x="1931.4" y="1223.3" class="st32" width="178.6" height="38.3"/>
						<rect x="1931.4" y="1233.7" class="st36" width="175.6" height="14.4"/>
					</g>
					<rect x="2117" y="1231.4" class="st37" width="78.1" height="20"/>
				</g>
				<g>
					<g>
						<rect x="1975.7" y="1185" class="st12" width="225.6" height="38.3"/>
						<rect x="1934.5" y="1185" class="st32" width="178.6" height="38.3"/>
						<rect x="1934.5" y="1195.4" class="st36" width="175.6" height="14.4"/>
					</g>
					<rect x="2120.1" y="1193.2" class="st37" width="78.1" height="20"/>
				</g>
				<g>
					<g>
						<rect x="1969.3" y="1255.7" class="st12" width="225.6" height="38.3"/>
						<rect x="1928.2" y="1255.7" class="st32" width="178.6" height="38.3"/>
						<rect x="1928.2" y="1266.1" class="st36" width="175.6" height="14.4"/>
					</g>
					<rect x="2113.7" y="1263.8" class="st37" width="78.1" height="20"/>
				</g>
				<g>
					<g>
						<rect x="1972.6" y="1328.4" class="st12" width="225.6" height="38.3"/>
						<rect x="1931.4" y="1328.4" class="st32" width="178.6" height="38.3"/>
						<rect x="1931.4" y="1338.9" class="st36" width="175.6" height="14.4"/>
					</g>
					<rect x="2117" y="1336.6" class="st37" width="78.1" height="20"/>
				</g>
				<g>
					<g>
						<rect x="1975.7" y="1290.2" class="st12" width="225.6" height="38.3"/>
						<rect x="1934.5" y="1290.2" class="st32" width="178.6" height="38.3"/>
						<rect x="1934.5" y="1300.6" class="st36" width="175.6" height="14.4"/>
					</g>
					<rect x="2120.1" y="1298.3" class="st37" width="78.1" height="20"/>
				</g>
			</g>
		</g>
		<g>
			<g>
				<g>
					<rect x="129" y="1604.2" class="st12" width="388.2" height="65.8"/>
					<rect x="58.2" y="1604.2" class="st32" width="307.3" height="65.8"/>
					<rect x="58.2" y="1622.2" class="st36" width="302.1" height="24.8"/>
				</g>
				<rect x="377.5" y="1618.2" class="st37" width="134.4" height="34.4"/>
			</g>
			<g>
				<g>
					<g>
						<rect x="105.2" y="1236.8" class="st12" width="388.2" height="65.8"/>
						<rect x="34.5" y="1236.8" class="st32" width="307.3" height="65.8"/>
						<rect x="34.5" y="1254.8" class="st36" width="302.1" height="24.8"/>
					</g>
					<rect x="353.7" y="1250.9" class="st37" width="134.4" height="34.4"/>
				</g>
				<g>
					<g>
						<rect x="110.8" y="1362" class="st12" width="388.2" height="65.8"/>
						<rect x="40.1" y="1362" class="st32" width="307.3" height="65.8"/>
						<rect x="40.1" y="1380" class="st36" width="302.1" height="24.8"/>
					</g>
					<rect x="359.3" y="1376.1" class="st37" width="134.4" height="34.4"/>
				</g>
				<g>
					<g>
						<rect x="116.2" y="1296.2" class="st12" width="388.2" height="65.8"/>
						<rect x="45.4" y="1296.2" class="st32" width="307.3" height="65.8"/>
						<rect x="45.4" y="1314.2" class="st36" width="302.1" height="24.8"/>
					</g>
					<rect x="364.6" y="1310.2" class="st37" width="134.4" height="34.4"/>
				</g>
				<g>
					<g>
						<rect x="105.2" y="1417.8" class="st12" width="388.2" height="65.8"/>
						<rect x="34.5" y="1417.8" class="st32" width="307.3" height="65.8"/>
						<rect x="34.5" y="1435.7" class="st36" width="302.1" height="24.8"/>
					</g>
					<rect x="353.7" y="1431.8" class="st37" width="134.4" height="34.4"/>
				</g>
				<g>
					<g>
						<rect x="110.8" y="1543" class="st12" width="388.2" height="65.8"/>
						<rect x="40.1" y="1543" class="st32" width="307.3" height="65.8"/>
						<rect x="40.1" y="1560.9" class="st36" width="302.1" height="24.8"/>
					</g>
					<rect x="359.3" y="1557" class="st37" width="134.4" height="34.4"/>
				</g>
				<g>
					<g>
						<rect x="116.2" y="1477.1" class="st12" width="388.2" height="65.8"/>
						<rect x="45.4" y="1477.1" class="st32" width="307.3" height="65.8"/>
						<rect x="45.4" y="1495.1" class="st36" width="302.1" height="24.8"/>
					</g>
					<rect x="364.6" y="1491.2" class="st37" width="134.4" height="34.4"/>
				</g>
			</g>
		</g>
		<g>
			<g>
				<g>
					<rect x="129" y="1193.6" class="st12" width="388.2" height="65.8"/>
					<rect x="58.2" y="1193.6" class="st32" width="307.3" height="65.8"/>
					<rect x="58.2" y="1211.6" class="st36" width="302.1" height="24.8"/>
				</g>
				<rect x="377.5" y="1207.7" class="st37" width="134.4" height="34.4"/>
			</g>
			<g>
				<g>
					<g>
						<rect x="105.2" y="826.3" class="st12" width="388.2" height="65.8"/>
						<rect x="34.5" y="826.3" class="st32" width="307.3" height="65.8"/>
						<rect x="34.5" y="844.2" class="st36" width="302.1" height="24.8"/>
					</g>
					<rect x="353.7" y="840.3" class="st37" width="134.4" height="34.4"/>
				</g>
				<g>
					<g>
						<rect x="110.8" y="951.5" class="st12" width="388.2" height="65.8"/>
						<rect x="40.1" y="951.5" class="st32" width="307.3" height="65.8"/>
						<rect x="40.1" y="969.4" class="st36" width="302.1" height="24.8"/>
					</g>
					<rect x="359.3" y="965.5" class="st37" width="134.4" height="34.4"/>
				</g>
				<g>
					<g>
						<rect x="116.2" y="885.7" class="st12" width="388.2" height="65.8"/>
						<rect x="45.4" y="885.7" class="st32" width="307.3" height="65.8"/>
						<rect x="45.4" y="903.6" class="st36" width="302.1" height="24.8"/>
					</g>
					<rect x="364.6" y="899.7" class="st37" width="134.4" height="34.4"/>
				</g>
				<g>
					<g>
						<rect x="105.2" y="1007.2" class="st12" width="388.2" height="65.8"/>
						<rect x="34.5" y="1007.2" class="st32" width="307.3" height="65.8"/>
						<rect x="34.5" y="1025.2" class="st36" width="302.1" height="24.8"/>
					</g>
					<rect x="353.7" y="1021.2" class="st37" width="134.4" height="34.4"/>
				</g>
				<g>
					<g>
						<rect x="110.8" y="1132.4" class="st12" width="388.2" height="65.8"/>
						<rect x="40.1" y="1132.4" class="st32" width="307.3" height="65.8"/>
						<rect x="40.1" y="1150.4" class="st36" width="302.1" height="24.8"/>
					</g>
					<rect x="359.3" y="1146.4" class="st37" width="134.4" height="34.4"/>
				</g>
				<g>
					<g>
						<rect x="116.2" y="1066.6" class="st12" width="388.2" height="65.8"/>
						<rect x="45.4" y="1066.6" class="st32" width="307.3" height="65.8"/>
						<rect x="45.4" y="1084.6" class="st36" width="302.1" height="24.8"/>
					</g>
					<rect x="364.6" y="1080.6" class="st37" width="134.4" height="34.4"/>
				</g>
			</g>
		</g>
		<g>
			<g>
				<g>
					<rect x="499.9" y="1604.2" class="st12" width="388.2" height="65.8"/>
					<rect x="429.2" y="1604.2" class="st32" width="307.3" height="65.8"/>
					<rect x="429.2" y="1622.2" class="st36" width="302.1" height="24.8"/>
				</g>
				<rect x="748.4" y="1618.2" class="st37" width="134.4" height="34.4"/>
			</g>
			<g>
				<g>
					<g>
						<rect x="476.1" y="1236.8" class="st12" width="388.2" height="65.8"/>
						<rect x="405.4" y="1236.8" class="st32" width="307.3" height="65.8"/>
						<rect x="405.4" y="1254.8" class="st36" width="302.1" height="24.8"/>
					</g>
					<rect x="724.6" y="1250.9" class="st37" width="134.4" height="34.4"/>
				</g>
				<g>
					<g>
						<rect x="481.8" y="1362" class="st12" width="388.2" height="65.8"/>
						<rect x="411" y="1362" class="st32" width="307.3" height="65.8"/>
						<rect x="411" y="1380" class="st36" width="302.1" height="24.8"/>
					</g>
					<rect x="730.2" y="1376.1" class="st37" width="134.4" height="34.4"/>
				</g>
				<g>
					<g>
						<rect x="487.1" y="1296.2" class="st12" width="388.2" height="65.8"/>
						<rect x="416.3" y="1296.2" class="st32" width="307.3" height="65.8"/>
						<rect x="416.3" y="1314.2" class="st36" width="302.1" height="24.8"/>
					</g>
					<rect x="735.5" y="1310.2" class="st37" width="134.4" height="34.4"/>
				</g>
				<g>
					<g>
						<rect x="476.1" y="1417.8" class="st12" width="388.2" height="65.8"/>
						<rect x="405.4" y="1417.8" class="st32" width="307.3" height="65.8"/>
						<rect x="405.4" y="1435.7" class="st36" width="302.1" height="24.8"/>
					</g>
					<rect x="724.6" y="1431.8" class="st37" width="134.4" height="34.4"/>
				</g>
				<g>
					<g>
						<rect x="481.8" y="1543" class="st12" width="388.2" height="65.8"/>
						<rect x="411" y="1543" class="st32" width="307.3" height="65.8"/>
						<rect x="411" y="1560.9" class="st36" width="302.1" height="24.8"/>
					</g>
					<rect x="730.2" y="1557" class="st37" width="134.4" height="34.4"/>
				</g>
				<g>
					<g>
						<rect x="487.1" y="1477.1" class="st12" width="388.2" height="65.8"/>
						<rect x="416.3" y="1477.1" class="st32" width="307.3" height="65.8"/>
						<rect x="416.3" y="1495.1" class="st36" width="302.1" height="24.8"/>
					</g>
					<rect x="735.5" y="1491.2" class="st37" width="134.4" height="34.4"/>
				</g>
			</g>
		</g>
		<g>
			<g>
				<g>
					<rect x="1958.2" y="1617.4" class="st12" width="225.6" height="38.3"/>
					<rect x="1917.1" y="1617.4" class="st32" width="178.6" height="38.3"/>
					<rect x="1917.1" y="1627.8" class="st36" width="175.6" height="14.4"/>
				</g>
				<rect x="2102.7" y="1625.6" class="st37" width="78.1" height="20"/>
			</g>
			<g>
				<g>
					<g>
						<rect x="1944.4" y="1403.9" class="st12" width="225.6" height="38.3"/>
						<rect x="1903.3" y="1403.9" class="st32" width="178.6" height="38.3"/>
						<rect x="1903.3" y="1414.3" class="st36" width="175.6" height="14.4"/>
					</g>
					<rect x="2088.8" y="1412" class="st37" width="78.1" height="20"/>
				</g>
				<g>
					<g>
						<rect x="1947.7" y="1476.6" class="st12" width="225.6" height="38.3"/>
						<rect x="1906.5" y="1476.6" class="st32" width="178.6" height="38.3"/>
						<rect x="1906.5" y="1487.1" class="st36" width="175.6" height="14.4"/>
					</g>
					<rect x="2092.1" y="1484.8" class="st37" width="78.1" height="20"/>
				</g>
				<g>
					<g>
						<rect x="1950.8" y="1438.4" class="st12" width="225.6" height="38.3"/>
						<rect x="1909.6" y="1438.4" class="st32" width="178.6" height="38.3"/>
						<rect x="1909.6" y="1448.8" class="st36" width="175.6" height="14.4"/>
					</g>
					<rect x="2095.2" y="1446.5" class="st37" width="78.1" height="20"/>
				</g>
				<g>
					<g>
						<rect x="1944.4" y="1509" class="st12" width="225.6" height="38.3"/>
						<rect x="1903.3" y="1509" class="st32" width="178.6" height="38.3"/>
						<rect x="1903.3" y="1519.5" class="st36" width="175.6" height="14.4"/>
					</g>
					<rect x="2088.8" y="1517.2" class="st37" width="78.1" height="20"/>
				</g>
				<g>
					<g>
						<rect x="1947.7" y="1581.8" class="st12" width="225.6" height="38.3"/>
						<rect x="1906.5" y="1581.8" class="st32" width="178.6" height="38.3"/>
						<rect x="1906.5" y="1592.3" class="st36" width="175.6" height="14.4"/>
					</g>
					<rect x="2092.1" y="1590" class="st37" width="78.1" height="20"/>
				</g>
				<g>
					<g>
						<rect x="1950.8" y="1543.6" class="st12" width="225.6" height="38.3"/>
						<rect x="1909.6" y="1543.6" class="st32" width="178.6" height="38.3"/>
						<rect x="1909.6" y="1554" class="st36" width="175.6" height="14.4"/>
					</g>
					<rect x="2095.2" y="1551.7" class="st37" width="78.1" height="20"/>
				</g>
			</g>
		</g>
		<g>
			<g>
				<g>
					<rect x="2013.9" y="1123.5" class="st12" width="225.6" height="38.3"/>
					<rect x="1972.7" y="1123.5" class="st32" width="178.6" height="38.3"/>
					<rect x="1972.7" y="1133.9" class="st36" width="175.6" height="14.4"/>
				</g>
				<rect x="2158.3" y="1131.6" class="st37" width="78.1" height="20"/>
			</g>
			<g>
				<g>
					<g>
						<rect x="2007" y="1014.3" class="st12" width="225.6" height="38.3"/>
						<rect x="1965.8" y="1014.3" class="st32" width="178.6" height="38.3"/>
						<rect x="1965.8" y="1024.8" class="st36" width="175.6" height="14.4"/>
					</g>
					<rect x="2151.4" y="1022.5" class="st37" width="78.1" height="20"/>
				</g>
				<g>
					<g>
						<rect x="2010.2" y="1087.1" class="st12" width="225.6" height="38.3"/>
						<rect x="1969.1" y="1087.1" class="st32" width="178.6" height="38.3"/>
						<rect x="1969.1" y="1097.5" class="st36" width="175.6" height="14.4"/>
					</g>
					<rect x="2154.6" y="1095.2" class="st37" width="78.1" height="20"/>
				</g>
				<g>
					<g>
						<rect x="2013.3" y="1048.8" class="st12" width="225.6" height="38.3"/>
						<rect x="1972.2" y="1048.8" class="st32" width="178.6" height="38.3"/>
						<rect x="1972.2" y="1059.3" class="st36" width="175.6" height="14.4"/>
					</g>
					<rect x="2157.7" y="1057" class="st37" width="78.1" height="20"/>
				</g>
			</g>
		</g>
		<g>
			<g>
				<g>
					<rect x="1645" y="1627.7" class="st12" width="225.6" height="38.3"/>
					<rect x="1603.8" y="1627.7" class="st32" width="178.6" height="38.3"/>
					<rect x="1603.8" y="1638.1" class="st36" width="175.6" height="14.4"/>
				</g>
				<rect x="1789.4" y="1635.8" class="st37" width="78.1" height="20"/>
			</g>
			<g>
				<g>
					<g>
						<rect x="1638.1" y="1518.6" class="st12" width="225.6" height="38.3"/>
						<rect x="1596.9" y="1518.6" class="st32" width="178.6" height="38.3"/>
						<rect x="1596.9" y="1529" class="st36" width="175.6" height="14.4"/>
					</g>
					<rect x="1782.5" y="1526.7" class="st37" width="78.1" height="20"/>
				</g>
				<g>
					<g>
						<rect x="1641.3" y="1591.3" class="st12" width="225.6" height="38.3"/>
						<rect x="1600.2" y="1591.3" class="st32" width="178.6" height="38.3"/>
						<rect x="1600.2" y="1601.8" class="st36" width="175.6" height="14.4"/>
					</g>
					<rect x="1785.7" y="1599.5" class="st37" width="78.1" height="20"/>
				</g>
				<g>
					<g>
						<rect x="1644.4" y="1553.1" class="st12" width="225.6" height="38.3"/>
						<rect x="1603.3" y="1553.1" class="st32" width="178.6" height="38.3"/>
						<rect x="1603.3" y="1563.5" class="st36" width="175.6" height="14.4"/>
					</g>
					<rect x="1788.8" y="1561.2" class="st37" width="78.1" height="20"/>
				</g>
			</g>
		</g>
		<g>
			<g>
				<g>
					<rect x="1302.8" y="1627.7" class="st12" width="225.6" height="38.3"/>
					<rect x="1261.7" y="1627.7" class="st32" width="178.6" height="38.3"/>
					<rect x="1261.7" y="1638.1" class="st36" width="175.6" height="14.4"/>
				</g>
				<rect x="1447.3" y="1635.8" class="st37" width="78.1" height="20"/>
			</g>
			<g>
				<g>
					<g>
						<rect x="1295.9" y="1518.6" class="st12" width="225.6" height="38.3"/>
						<rect x="1254.8" y="1518.6" class="st32" width="178.6" height="38.3"/>
						<rect x="1254.8" y="1529" class="st36" width="175.6" height="14.4"/>
					</g>
					<rect x="1440.3" y="1526.7" class="st37" width="78.1" height="20"/>
				</g>
				<g>
					<g>
						<rect x="1299.2" y="1591.3" class="st12" width="225.6" height="38.3"/>
						<rect x="1258" y="1591.3" class="st32" width="178.6" height="38.3"/>
						<rect x="1258" y="1601.8" class="st36" width="175.6" height="14.4"/>
					</g>
					<rect x="1443.6" y="1599.5" class="st37" width="78.1" height="20"/>
				</g>
				<g>
					<g>
						<rect x="1302.3" y="1553.1" class="st12" width="225.6" height="38.3"/>
						<rect x="1261.2" y="1553.1" class="st32" width="178.6" height="38.3"/>
						<rect x="1261.2" y="1563.5" class="st36" width="175.6" height="14.4"/>
					</g>
					<rect x="1446.7" y="1561.2" class="st37" width="78.1" height="20"/>
				</g>
			</g>
		</g>
		<g>
			<g>
				<g>
					<rect x="1320" y="1482" class="st12" width="225.6" height="38.3"/>
					<rect x="1278.8" y="1482" class="st32" width="178.6" height="38.3"/>
					<rect x="1278.8" y="1492.4" class="st36" width="175.6" height="14.4"/>
				</g>
				<rect x="1464.4" y="1490.1" class="st37" width="78.1" height="20"/>
			</g>
			<g>
				<g>
					<g>
						<rect x="1313" y="1372.8" class="st12" width="225.6" height="38.3"/>
						<rect x="1271.9" y="1372.8" class="st32" width="178.6" height="38.3"/>
						<rect x="1271.9" y="1383.3" class="st36" width="175.6" height="14.4"/>
					</g>
					<rect x="1457.5" y="1381" class="st37" width="78.1" height="20"/>
				</g>
				<g>
					<g>
						<rect x="1316.3" y="1445.6" class="st12" width="225.6" height="38.3"/>
						<rect x="1275.2" y="1445.6" class="st32" width="178.6" height="38.3"/>
						<rect x="1275.2" y="1456.1" class="st36" width="175.6" height="14.4"/>
					</g>
					<rect x="1460.7" y="1453.8" class="st37" width="78.1" height="20"/>
				</g>
				<g>
					<g>
						<rect x="1319.4" y="1407.4" class="st12" width="225.6" height="38.3"/>
						<rect x="1278.3" y="1407.4" class="st32" width="178.6" height="38.3"/>
						<rect x="1278.3" y="1417.8" class="st36" width="175.6" height="14.4"/>
					</g>
					<rect x="1463.8" y="1415.5" class="st37" width="78.1" height="20"/>
				</g>
			</g>
		</g>
		<path class="st38" d="M974.4,1627.8c9-1.9,255.4,0,255.4,0l124.6,119.9h-254.8L974.4,1627.8z"/>
		<path class="st39" d="M1225.9,1646.8c0,0,12.2,68.2-23.2,100.9h-29.1L1225.9,1646.8z"/>
		<path class="st32" d="M1225.9,1638.1c1.8,2.4-8.6,78.3-41.2,109.6H1128L1225.9,1638.1z"/>
		<path class="st36" d="M1229.8,1627.8c0,0-246.4-1.9-255.4,0l125.2,119.9h1.1h27.3l97.9-100.9l105.1,100.9h23.4L1229.8,1627.8z"/>
		<polyline class="st9" points="845.9,1747.7 845.9,1813.9 1147.5,1813.9 1392.6,1813.9 1354.4,1747.7 845.9,1747.7 		"/>
		<polygon class="st14" points="1376.6,1786.2 1359.8,1757 845.9,1757 845.9,1786.2 		"/>
		<path class="st40" d="M1225.9,1627.8c-9-1.9-255.4,0-255.4,0l-124.6,119.9h254.8L1225.9,1627.8z"/>
	</g>
	<path class="st41" d="M523.8,777.9l-172.7,874.4l1924.5,0.3l-276.2-890.1c0,0-555.6-376.8-559.4-762.9h-273.7
		C1166.3-0.3,961.3,643,523.8,777.9z"/>
	<g>
		<g>
			<path class="st42" d="M1369.5,1347.5c-13.4,0-24.2,10.9-24.2,24.2h48.5C1393.7,1358.3,1382.9,1347.5,1369.5,1347.5z"/>
		</g>
		<g>
			<path class="st42" d="M1423.5,1310.2c8.3-6,18.5-11.2,28.4-13.8c3.9-1,10.8-3.6,13.3,1c2.1,4,1.1,10.2,0,14.3
				c-2.8,10.4-13.4,14.6-23.2,15.7c-4.9,0.6-10.6,1.2-15.2-0.9c-5.2-2.4-10.3-4.5-15.6-6.7c-4.5-1.8-8.6,5.3-4.8,8.3
				c3.3,2.6,6.7,4.2,10.4,5.9c3.2,1.5,6.4,3.5,9.8,4.3c6.6,1.6,14.4,0.5,21-0.8c14.4-2.6,26.2-12,28.6-26.8
				c2.1-12.9-2.4-27.7-18-26.1c-14.5,1.4-28.7,10.3-38.2,21.1C1418.1,1308,1420.7,1312.1,1423.5,1310.2L1423.5,1310.2z"/>
		</g>
		<path class="st43" d="M1324.5,1274.3c11.1-8.2,20.9-21,18.7-34.7c-1.9-12.2-12.6-20.9-21.5-29.5c-8.9-8.6-17.3-20.9-13.2-32.6
			c3.9-11,16.6-15.6,27.8-18.5c11.2-3,22.7-5.8,32.8-11.5c10.1-5.7,19-14.8,21.6-26.1c5.9-25.6-20.7-47.9-22.4-74.1
			c-0.3-5.1,0.4-10.5,2.9-14.9c2.3-4.1,5.9-7.2,9.5-10.1c17.2-13.9,37.8-28,41.5-49.8c1.1-6.6,0.5-13.4,2.6-19.7
			c4-12.1,16.5-19.2,28.5-23.6c11.7-4.3,23.9-7.2,36.3-8.6c1.5-0.2,3-0.3,4.4,0.3c5.4,2.2,1.9,10.6-2.7,14.2
			c-9.6,7.6-21.2,12.4-31.2,19.4c-10,7.1-18.9,17.6-19,29.9c0,11.5,7.7,23.4,2.7,33.8c-1.9,4.1-5.5,7.1-8.8,10.2
			c-9.1,8.6-16.6,18.9-22.1,30.1c-3.5,7.4-6.2,15.6-5,23.6s7.5,15.8,15.7,16.5c2.6,0.2,5.5-0.2,7.7,1.2c2,1.2,2.9,3.6,3.7,5.8
			c4.3,12.3,8.2,27.3-0.1,37.3c-8.5,10.2-25.3,9.3-34.8,18.5c-2.1,2-3.8,4.7-3.6,7.6c0.6,7.4,11,8.1,18.4,7.8
			c24.8-1,49.4,14.5,51.3,40.4c0.1,1.8,0.2,3.6-0.5,5.3c-1.8,4.2-7.4,4.6-11.9,4.4c-13.5-0.7-26.9-2.1-40.2-4.1
			c-4.4,0.9-5.6,6.8-3.6,10.8c2,4,5.9,6.7,8.7,10.2c2.8,3.5,4.4,8.9,1.4,12.2c-1.6,1.8-4.3,2.6-5.8,4.6c-4,5.6,5.1,12.6,3.8,19.3
			c-0.9,4.9-6.7,7-11.6,8.1c-12,2.9-24,5.8-36,8.6c-8.6,2.1-17.4,4.1-26.1,3.1c-5.1-0.6-10-2.3-14.4-5
			C1322.3,1289.9,1317.2,1279.7,1324.5,1274.3z"/>
		<path class="st43" d="M1368.2,1258.5c0.9-2.2,1.7-4.5,1.7-6.9c0.1-6.1-4.5-11.2-8.8-15.7c-10.7-11.3-21.3-24.7-21.3-40.3
			c4.7-2.4,11.1-6.4,15.2-3.1c1.9,1.5,2.8,3.8,3.9,5.9c1.8,3.2,4.2,6.2,7,8.5c8.5,1.4,17.3-6.7,16-15.1c-1.1-7.4-8.1-13.1-8.7-20.6
			c6.2-10.2,24.1-17.1,30.4-27.3c5-8.2,2.3-18.7-0.9-27.8c-4.8-13.7-10.2-27.3-18-39.5c-3.3-5.2-7.2-10.5-7.8-16.6
			c-1.3-13.9,14.2-23.3,27.9-26.1c6.3-1.3,13.1-2.1,18.1-6.2c8.1-6.7,8.1-19.5,3.7-29.1c-2.3-4.9-5.4-9.3-8.7-13.7
			c-7.8,14.9-23.5,26-37.1,37c-3.6,2.9-7.2,6.1-9.5,10.1c-2.5,4.5-3.2,9.8-2.9,14.9c1.7,26.2,28.3,48.5,22.4,74.1
			c-2.6,11.3-11.5,20.4-21.6,26.1c-10.1,5.7-21.6,8.5-32.8,11.5c-11.2,3-23.9,7.6-27.8,18.5c-4.1,11.7,4.2,24,13.2,32.6
			c8.9,8.6,19.5,17.2,21.5,29.5c2.2,13.7-7.6,26.5-18.7,34.7c-7.3,5.4-2.2,15.6,5.6,20.3c1.7,1,3.6,1.9,5.5,2.7
			C1350.2,1288.2,1361.9,1274.4,1368.2,1258.5z"/>
		<g>
			<path class="st44" d="M1369.5,1356.3c40.3,0,73.1-32.7,73.1-73.1h-146.1C1296.4,1323.6,1329.1,1356.3,1369.5,1356.3z"/>
		</g>
		<path class="st45" d="M1409.1,1283.2c0,34.6-24.1,63.6-56.3,71.1c5.4,1.3,11,1.9,16.7,1.9c40.3,0,73.1-32.7,73.1-73.1H1409.1z"/>
	</g>
</g>
</svg>
